<?xml version="1.0" standalone="no"?>
<svg xmlns="http://www.w3.org/2000/svg" viewBox="0 0 120 73" width="120" height="73"><g fill="#FFC93C" color="#FFC93C" transform="translate(37.702 0) scale(0.4888889) "><svg width="90.0" height="90.0" x="0.0" y="0.0" viewBox="0 0 90 90"><desc iVinci="yes" version="4.4" gridStep="20" showGrid="no" snapToGrid="no" codePlatform="0"></desc><g><g><desc type="0" basicInfo-basicType="0" basicInfo-roundedRectRadius="12" basicInfo-polygonSides="6" basicInfo-starPoints="5" bounding="rect(-30.1365,-44.9245,60.273,89.849)" text="" font-familyName="Helvetica" font-pixelSize="20" font-bold="0" font-underline="0" font-alignment="1" strokeStyle="0" markerStart="0" markerEnd="0" shadowEnabled="0" shadowOffsetX="0" shadowOffsetY="2" shadowBlur="4" shadowOpacity="160" blurEnabled="0" blurRadius="4" transform="matrix(1,0,0,1,44.7575,45.0756)" pers-center="0,0" pers-size="0,0" pers-start="0,0" pers-end="0,0" locked="0" mesh="" flag=""></desc><path d="M33.103,86.002 C33.103,86.002 33.083,85.434 33.095,84.732 C33.103,84.029 56.846,83.325 56.846,83.325 C56.837,84.382 56.826,83.846 56.84,84.597 C56.851,85.35 33.103,86.002 33.103,86.002 M33.106,89.312 C33.129,90.144 56.857,90.302 56.834,89.337 C56.812,88.373 56.834,87.236 56.837,85.42 C56.803,86.415 33.132,86.902 33.115,87.523 C33.095,88.684 33.083,88.48 33.106,89.312 M33.109,83.3 C33.109,83.3 56.86,82.648 56.846,81.895 C56.834,81.145 56.846,81.68 56.854,80.624 C56.854,80.624 33.109,81.326 33.1,82.03 C33.092,82.732 33.109,83.3 33.109,83.3 M33.117,80.598 C33.117,80.598 56.868,79.946 56.854,79.194 C56.84,78.443 56.854,78.978 56.86,77.922 C56.86,77.922 33.117,78.624 33.109,79.327 C33.1,80.029 33.117,80.598 33.117,80.598 M33.154,77.897 C33.154,77.897 56.905,77.245 56.891,76.492 C56.877,75.741 56.891,76.276 56.897,75.22 C56.897,75.22 33.154,75.923 33.146,76.625 C33.137,77.327 33.154,77.897 33.154,77.897 M33.163,75.195 C33.163,75.195 56.911,74.541 56.899,73.79 C56.885,73.039 56.897,73.575 56.905,72.518 C56.905,72.518 33.16,73.221 33.151,73.923 C33.143,74.626 33.163,75.195 33.163,75.195 M74.894,31.226 C74.2561,39.0494 67.5539,44.1572 62.571,49.446 C61.432,50.952 60.521,52.6 59.776,54.29 C57.825,58.714 63.518,65.047 59.359,68.544 C59.359,70.739 57.257,72.518 54.663,72.518 L35.111,72.518 C32.518,72.518 30.415,70.739 30.415,68.544 C26.257,65.047 31.949,58.714 29.998,54.29 C29.253,52.6 28.342,50.952 27.203,49.446 C21.3141,43.8859 14.621,40.0976 14.621,31.226 C14.621,-9.56253 74.894,-10.8468 74.894,31.226 M48.256,6.75399 C38.1979,6.75399 28.6038,12.5203 22.548,20.503 C21.071,22.434 17.521,27.132 19.602,29.669 C21.8066,32.4227 25.613,33.9602 29.105,33.561 C31.5727,32.9514 34.5311,30.7917 34.205,27.966 C33.875,26.574 32.411,25.85 29.814,25.793 C31.224,23.71 33.6563,21.2613 37.413,18.91 C45,14.1614 54.663,12.8086 56.905,18.2439 C60.5994,27.2005 46.1542,33.0225 40.309,39.087 C37.511,41.645 33.758,45.242 34.853,49.203 C35.976,53.268 41.83,54.803 45.876,54.399 C46.723,54.24 47.516,54 48.256,53.679 C48.48,51.398 44.316,48.916 44.726,47.301 C45.705,43.449 50.195,40.745 53.325,38.273 C61.6924,33.3281 74.173,25.3821 65.0061,13.2936 C61.3344,8.45169 53.722,6.75399 48.256,6.75399 M44.48,58.928 C44.09,58.973 43.687,58.964 43.31,59.063 C41.441,59.556 39.588,60.693 38.959,62.438 C38.781,62.931 38.816,63.473 38.868,63.989 C38.895,64.265 39.005,64.548 39.193,64.769 C39.6,65.247 40.089,65.674 40.617,66.046 C41.81,66.884 44.547,67.365 46.03,67.095 C47.786,66.775 52.426,63.974 51.957,61.98 C51.499,60.029 48.914,59.521 47.1,59.117 L44.48,58.928 " style="" stroke="none" fill-rule="evenodd" fill="currentColor" fill-opacity="1"></path></g></g></svg></g><path fill="#31326F" fill-rule="nonzero" d="M3.91 5.78L3.91 5.78Q3.68 5.87 3.46 5.87L3.46 5.87Q2.89 5.87 2.68 5.20L2.68 5.20Q2.63 5.03 2.61 4.91Q2.59 4.79 2.59 4.70L2.59 4.70Q2.59 4.15 3.21 3.88L3.21 3.88Q4.44 3.39 5.72 3.08Q7.00 2.78 8.30 2.78L8.30 2.78Q8.91 2.78 9.50 2.91Q10.09 3.04 10.56 3.35Q11.03 3.67 11.32 4.20Q11.61 4.72 11.61 5.52L11.61 5.52Q11.61 6.08 11.38 6.60Q11.16 7.11 10.78 7.58Q10.41 8.05 9.93 8.47Q9.45 8.89 8.94 9.25Q8.44 9.60 7.95 9.88Q7.45 10.17 7.05 10.38L7.05 10.38Q6.71 10.58 6.71 10.79L6.71 10.79Q6.71 11.04 7.08 11.18L7.08 11.18Q8.33 11.63 9.64 12.01Q10.96 12.40 12.30 12.88L12.30 12.88Q12.94 13.11 12.94 13.61L12.94 13.61Q12.94 13.84 12.80 14.08Q12.67 14.32 12.50 14.52L12.50 14.52Q12.16 15.02 11.66 15.02L11.66 15.02Q11.48 15.02 11.23 14.95L11.23 14.95Q10.46 14.66 9.59 14.34Q8.72 14.03 7.81 13.72Q6.90 13.41 6.02 13.12Q5.14 12.83 4.39 12.60L4.39 12.60Q4.13 12.53 4.03 12.53L4.03 12.53Q3.94 12.53 3.88 12.57Q3.83 12.61 3.83 12.74L3.83 12.74Q3.83 12.77 3.84 12.83Q3.86 12.88 3.86 12.94L3.86 12.94Q3.89 13.11 3.94 13.40Q4.00 13.69 4.05 13.99Q4.10 14.30 4.14 14.57Q4.17 14.85 4.17 15.02L4.17 15.02Q4.17 15.68 3.46 15.94L3.46 15.94L2.93 16.10Q2.81 16.14 2.72 16.15Q2.63 16.17 2.52 16.17L2.52 16.17Q1.88 16.17 1.77 15.38L1.77 15.38Q1.49 13.24 1.05 11.17Q0.61 9.09 0.05 7.03L0.05 7.03Q0.01 6.91 0.01 6.83Q0 6.74 0 6.67L0 6.67Q0 6.05 0.67 5.82L0.67 5.82Q0.91 5.74 1.07 5.70Q1.23 5.65 1.33 5.62Q1.43 5.59 1.48 5.58Q1.54 5.57 1.58 5.57L1.58 5.57Q2.21 5.57 2.40 6.28L2.40 6.28Q2.65 7.20 2.87 8.05Q3.08 8.91 3.26 9.74L3.26 9.74Q3.35 10.15 3.60 10.15L3.60 10.15Q3.67 10.15 3.76 10.12Q3.86 10.09 3.98 10.03L3.98 10.03Q4.36 9.83 4.89 9.54Q5.43 9.25 6.01 8.89Q6.59 8.53 7.15 8.13Q7.72 7.73 8.17 7.34Q8.63 6.94 8.91 6.55Q9.19 6.16 9.19 5.82L9.19 5.82Q9.19 5.61 9.12 5.44Q9.06 5.26 8.88 5.13Q8.71 5.00 8.41 4.93Q8.11 4.86 7.65 4.86L7.65 4.86Q7.21 4.86 6.72 4.94Q6.23 5.02 5.75 5.14Q5.27 5.27 4.80 5.44Q4.34 5.60 3.91 5.78ZM15.62 10.51L15.62 10.51Q15.62 12.08 16.10 12.94Q16.58 13.79 17.50 13.79L17.50 13.79Q18.07 13.79 18.56 13.45Q19.04 13.11 19.39 12.50Q19.75 11.89 19.94 11.06Q20.13 10.22 20.13 9.23L20.13 9.23Q20.13 8.64 20.09 8.20Q20.04 7.76 19.99 7.41Q19.93 7.07 19.89 6.80Q19.84 6.53 19.84 6.28L19.84 6.28Q19.84 5.91 20.16 5.74Q20.47 5.57 21.16 5.57L21.16 5.57Q22.04 5.57 22.53 5.96Q23.02 6.36 23.02 7.13L23.02 7.13Q23.02 9.20 22.61 10.85Q22.21 12.50 21.45 13.66Q20.70 14.81 19.62 15.43Q18.54 16.05 17.20 16.05L17.20 16.05Q16.25 16.05 15.45 15.66Q14.65 15.27 14.07 14.56Q13.49 13.85 13.16 12.87Q12.83 11.89 12.83 10.72L12.83 10.72Q12.83 10.28 12.86 9.77Q12.88 9.27 12.93 8.69Q12.97 8.11 13.05 7.43Q13.13 6.75 13.22 5.95L13.22 5.95Q13.25 5.61 13.54 5.41Q13.83 5.20 14.27 5.20L14.27 5.20Q14.67 5.20 15.02 5.29Q15.38 5.37 15.63 5.51Q15.88 5.65 16.03 5.84Q16.17 6.02 16.17 6.23L16.17 6.23Q16.17 6.45 16.08 6.90Q16.00 7.35 15.90 7.93Q15.80 8.51 15.71 9.18Q15.62 9.86 15.62 10.51ZM25.51 1.13L25.51 1.13Q25.51 0.50 25.86 0.25Q26.21 0 27.02 0L27.02 0Q27.32 0 27.52 0.05Q27.73 0.11 27.87 0.25Q28.02 0.39 28.11 0.62Q28.20 0.84 28.25 1.20L28.25 1.20Q28.39 2.29 28.56 3.45Q28.73 4.61 28.92 5.78L28.92 5.78Q28.99 6.30 29.47 6.30L29.47 6.30Q29.60 6.30 29.90 6.28Q30.20 6.25 30.61 6.21Q31.02 6.16 31.49 6.12Q31.97 6.07 32.44 6.03Q32.92 5.99 33.35 5.96Q33.77 5.93 34.10 5.93L34.10 5.93Q34.36 5.93 34.51 6.03Q34.66 6.13 34.75 6.29Q34.84 6.45 34.87 6.64Q34.90 6.83 34.90 7.03L34.90 7.03Q34.90 7.21 34.83 7.39Q34.77 7.58 34.66 7.73Q34.55 7.88 34.38 7.97Q34.22 8.06 34.01 8.06L34.01 8.06Q32.99 8.06 31.95 8.13Q30.91 8.19 29.88 8.30L29.88 8.30Q29.36 8.37 29.36 8.82L29.36 8.82Q29.36 8.86 29.37 8.91Q29.38 8.96 29.38 9L29.38 9Q29.52 10.02 29.64 10.91Q29.77 11.80 29.85 12.50Q29.94 13.20 29.99 13.66Q30.05 14.12 30.05 14.27L30.05 14.27Q30.05 14.70 29.96 14.98Q29.88 15.27 29.70 15.45Q29.51 15.63 29.20 15.71Q28.89 15.79 28.42 15.79L28.42 15.79Q27.97 15.79 27.76 15.57Q27.55 15.36 27.53 14.93L27.53 14.93Q27.46 13.55 27.30 12.15Q27.15 10.75 26.95 9.35L26.95 9.35Q26.85 8.85 26.43 8.85L26.43 8.85Q26.39 8.85 26.34 8.86Q26.30 8.87 26.26 8.87L26.26 8.87Q25.54 9.04 24.89 9.20Q24.25 9.36 23.68 9.55L23.68 9.55Q23.37 9.66 23.12 9.70Q22.88 9.74 22.68 9.74L22.68 9.74Q22.41 9.74 22.28 9.50Q22.15 9.26 22.15 8.89L22.15 8.89Q22.15 8.77 22.17 8.60Q22.20 8.43 22.26 8.26Q22.32 8.09 22.45 7.94Q22.57 7.79 22.78 7.70L22.78 7.70Q23.27 7.50 24.09 7.28Q24.91 7.07 25.95 6.88L25.95 6.88Q26.18 6.82 26.31 6.69Q26.45 6.55 26.45 6.28L26.45 6.28Q26.45 6.22 26.45 6.16Q26.45 6.09 26.43 6.02L26.43 6.02Q26.24 4.95 26.07 4.06Q25.90 3.18 25.78 2.54Q25.65 1.91 25.58 1.55Q25.51 1.18 25.51 1.13ZM33.89 3.38L33.89 3.38Q33.89 2.11 35.53 2.11L35.53 2.11Q35.81 2.11 36.02 2.26Q36.23 2.41 36.27 2.68L36.27 2.68Q36.38 3.40 36.46 4.10Q36.54 4.80 36.62 5.68Q36.69 6.55 36.77 7.69Q36.84 8.84 36.94 10.42L36.94 10.42Q36.94 10.58 36.99 10.65Q37.04 10.72 37.11 10.72L37.11 10.72Q37.22 10.72 37.32 10.51L37.32 10.51Q37.72 9.63 38.21 8.94Q38.71 8.24 39.27 7.75Q39.83 7.27 40.46 7.01Q41.09 6.76 41.74 6.76L41.74 6.76Q42.61 6.76 43.31 7.25Q44.02 7.75 44.51 8.65Q45 9.55 45.27 10.83Q45.54 12.12 45.54 13.70L45.54 13.70Q45.54 14.13 45.47 14.41Q45.41 14.68 45.26 14.85Q45.11 15.01 44.84 15.08Q44.57 15.14 44.17 15.14L44.17 15.14Q43.62 15.14 43.38 14.93Q43.14 14.72 43.14 14.27L43.14 14.27Q43.14 13.17 42.99 12.19Q42.84 11.21 42.59 10.48Q42.33 9.74 41.98 9.30Q41.64 8.87 41.24 8.87L41.24 8.87Q40.34 8.87 39.44 10.34Q38.54 11.80 37.57 14.75L37.57 14.75Q37.48 15.02 37.36 15.20Q37.24 15.38 37.08 15.48Q36.93 15.59 36.70 15.63Q36.48 15.67 36.18 15.67L36.18 15.67Q35.55 15.67 35.29 15.43Q35.03 15.20 35.00 14.66L35.00 14.66Q34.93 12.62 34.75 10.76Q34.57 8.91 34.38 7.40Q34.18 5.89 34.04 4.85Q33.89 3.80 33.89 3.38ZM57.08 12.09L57.08 12.09Q57.42 11.80 57.75 11.80L57.75 11.80Q57.94 11.80 58.09 11.89Q58.24 11.99 58.43 12.19L58.43 12.19Q58.61 12.46 58.68 12.63Q58.76 12.80 58.76 12.96L58.76 12.96Q58.76 13.31 58.41 13.63L58.41 13.63Q57.84 14.10 57.19 14.47Q56.53 14.84 55.82 15.09Q55.10 15.35 54.34 15.49Q53.58 15.62 52.83 15.62L52.83 15.62Q51.88 15.62 51.05 15.38Q50.21 15.14 49.56 14.70Q48.91 14.25 48.47 13.62Q48.02 13.00 47.84 12.21L47.84 12.21Q47.73 11.88 47.64 11.78Q47.55 11.68 47.36 11.68L47.36 11.68Q46.92 11.68 46.69 11.47Q46.45 11.26 46.45 10.86L46.45 10.86Q46.45 10.70 46.48 10.65L46.48 10.65L46.50 10.42Q46.56 10.00 46.73 9.81Q46.90 9.62 47.26 9.62L47.26 9.62L47.44 9.62Q47.93 9.62 48.13 9.16L48.13 9.16Q48.49 8.36 49.05 7.69Q49.62 7.02 50.32 6.54Q51.02 6.07 51.83 5.81Q52.63 5.54 53.46 5.54L53.46 5.54Q54.33 5.54 55.08 5.79Q55.84 6.05 56.40 6.49Q56.96 6.94 57.29 7.54Q57.61 8.13 57.61 8.82L57.61 8.82Q57.61 9.30 57.42 9.70Q57.23 10.10 56.88 10.40Q56.53 10.70 56.03 10.89Q55.54 11.07 54.90 11.13L54.90 11.13L50.84 11.54Q50.60 11.54 50.46 11.66Q50.31 11.78 50.31 11.98L50.31 11.98Q50.31 12.28 50.54 12.56Q50.77 12.84 51.15 13.06Q51.53 13.28 52.03 13.41Q52.52 13.54 53.05 13.54L53.05 13.54Q53.55 13.54 54.09 13.44Q54.62 13.34 55.14 13.15Q55.66 12.96 56.16 12.70Q56.65 12.43 57.08 12.09ZM54.47 9.07L54.47 9.07Q54.64 9.04 54.77 8.90Q54.90 8.77 54.90 8.57L54.90 8.57Q54.90 8.39 54.77 8.24Q54.64 8.09 54.42 7.96Q54.20 7.84 53.91 7.77Q53.61 7.70 53.29 7.70L53.29 7.70Q52.80 7.70 52.30 7.84Q51.80 7.98 51.39 8.21Q50.98 8.44 50.72 8.71Q50.46 8.99 50.46 9.26L50.46 9.26Q50.46 9.53 50.79 9.53L50.79 9.53Q50.99 9.53 51.43 9.48Q51.88 9.43 52.42 9.37Q52.96 9.30 53.51 9.22Q54.06 9.14 54.47 9.07ZM59.70 5.20L59.70 5.20Q59.70 5.03 59.85 4.86Q60 4.69 60.25 4.55Q60.49 4.42 60.80 4.33Q61.11 4.24 61.43 4.24L61.43 4.24Q61.61 4.24 61.73 4.34Q61.85 4.43 61.95 4.69Q62.04 4.96 62.12 5.43Q62.19 5.91 62.26 6.67L62.26 6.67Q62.31 6.90 62.35 7.03Q62.39 7.15 62.46 7.15L62.46 7.15Q62.57 7.15 62.67 6.79L62.67 6.79Q63.53 4.31 65.14 4.31L65.14 4.31Q65.89 4.31 66.51 4.78Q67.13 5.25 67.66 6.31Q68.19 7.37 68.67 9.10Q69.15 10.83 69.63 13.36L69.63 13.36Q69.66 13.49 69.67 13.59Q69.68 13.70 69.68 13.79L69.68 13.79Q69.68 14.06 69.56 14.26Q69.43 14.45 69.23 14.57Q69.04 14.70 68.79 14.76Q68.54 14.82 68.30 14.82L68.30 14.82Q67.80 14.82 67.59 14.72Q67.37 14.61 67.31 14.32L67.31 14.32Q66.97 12.54 66.65 11.16Q66.33 9.77 66.02 8.83Q65.71 7.89 65.40 7.39Q65.10 6.90 64.79 6.90L64.79 6.90Q64.49 6.90 64.22 7.28Q63.96 7.66 63.71 8.47Q63.47 9.28 63.24 10.52Q63.01 11.77 62.80 13.49L62.80 13.49Q62.74 13.96 62.33 14.24Q61.92 14.52 61.29 14.52L61.29 14.52Q60.87 14.52 60.64 14.34Q60.42 14.17 60.40 13.86L60.40 13.86Q60.29 11.43 60.17 9.85Q60.05 8.27 59.94 7.32Q59.84 6.36 59.77 5.89Q59.70 5.43 59.70 5.20ZM84.08 11.87L83.48 10.05Q83.41 9.83 83.41 9.64L83.41 9.64Q83.41 9.09 84.01 8.80L84.01 8.80Q84.26 8.68 84.42 8.61Q84.59 8.53 84.70 8.49Q84.81 8.45 84.88 8.44Q84.95 8.43 85.02 8.43L85.02 8.43Q85.29 8.43 85.49 8.69Q85.69 8.95 85.85 9.36Q86.00 9.76 86.13 10.22Q86.25 10.69 86.38 11.09Q86.52 11.50 86.68 11.76Q86.84 12.02 87.06 12.02L87.06 12.02Q87.30 12.02 87.54 11.79Q87.79 11.57 87.98 11.21Q88.18 10.86 88.31 10.45Q88.43 10.04 88.43 9.67L88.43 9.67Q88.43 8.47 87.97 7.53Q87.52 6.59 86.79 5.93Q86.06 5.27 85.14 4.93Q84.22 4.58 83.31 4.58L83.31 4.58Q82.22 4.58 81.52 4.84Q80.81 5.10 80.41 5.58Q80.00 6.07 79.85 6.77Q79.69 7.48 79.69 8.37L79.69 8.37Q79.69 9.05 79.95 9.70Q80.20 10.35 80.70 10.90Q81.19 11.45 81.90 11.87Q82.62 12.29 83.53 12.50L83.53 12.50Q83.59 12.53 83.63 12.53Q83.66 12.53 83.72 12.53L83.72 12.53Q83.91 12.53 84.02 12.41Q84.13 12.29 84.13 12.12L84.13 12.12Q84.13 12.06 84.12 12.01Q84.11 11.95 84.08 11.87L84.08 11.87ZM77.26 8.45L77.26 8.45Q77.26 8.32 77.27 8.13Q77.29 7.95 77.29 7.75L77.29 7.75Q77.29 7.56 77.26 7.37Q77.24 7.18 77.17 7.03Q77.11 6.87 76.99 6.76Q76.88 6.64 76.69 6.62L76.69 6.62Q76.48 6.60 76.34 6.45Q76.21 6.30 76.21 6.09L76.21 6.09Q76.21 5.78 76.43 5.47L76.43 5.47Q76.97 4.65 77.74 4.07Q78.50 3.49 79.42 3.13Q80.33 2.77 81.34 2.60Q82.35 2.43 83.37 2.43L83.37 2.43Q84.19 2.43 85.05 2.62Q85.92 2.81 86.75 3.20Q87.57 3.59 88.31 4.15Q89.05 4.71 89.60 5.46Q90.15 6.20 90.47 7.11Q90.80 8.02 90.80 9.09L90.80 9.09Q90.80 10.00 90.59 10.75Q90.38 11.50 89.99 12.11Q89.61 12.71 89.07 13.19Q88.54 13.66 87.88 13.99L87.88 13.99Q87.49 14.16 87.49 14.52L87.49 14.52Q87.49 14.55 87.49 14.60Q87.49 14.64 87.50 14.67L87.50 14.67Q87.50 14.72 87.52 14.75L87.52 14.75Q87.57 15.07 87.67 15.53Q87.77 16.00 87.87 16.49Q87.97 16.99 88.04 17.46Q88.11 17.92 88.11 18.23L88.11 18.23Q88.11 18.96 87.29 19.15L87.29 19.15Q87.05 19.21 86.82 19.24Q86.60 19.27 86.53 19.27L86.53 19.27Q85.82 19.27 85.71 18.43L85.71 18.43Q85.61 17.63 85.45 16.85Q85.29 16.08 85.11 15.30L85.11 15.30Q85.04 15.04 84.92 14.92Q84.80 14.80 84.63 14.80L84.63 14.80L84.29 14.80Q82.73 14.80 81.45 14.29Q80.16 13.78 79.22 12.91Q78.29 12.04 77.78 10.89Q77.26 9.74 77.26 8.45ZM95.17 10.51L95.17 10.51Q95.17 12.08 95.65 12.94Q96.13 13.79 97.04 13.79L97.04 13.79Q97.62 13.79 98.10 13.45Q98.59 13.11 98.94 12.50Q99.29 11.89 99.49 11.06Q99.68 10.22 99.68 9.23L99.68 9.23Q99.68 8.64 99.63 8.20Q99.59 7.76 99.53 7.41Q99.48 7.07 99.43 6.80Q99.39 6.53 99.39 6.28L99.39 6.28Q99.39 5.91 99.70 5.74Q100.02 5.57 100.71 5.57L100.71 5.57Q101.59 5.57 102.08 5.96Q102.56 6.36 102.56 7.13L102.56 7.13Q102.56 9.20 102.16 10.85Q101.75 12.50 101.00 13.66Q100.24 14.81 99.16 15.43Q98.09 16.05 96.75 16.05L96.75 16.05Q95.80 16.05 95.00 15.66Q94.20 15.27 93.62 14.56Q93.04 13.85 92.71 12.87Q92.38 11.89 92.38 10.72L92.38 10.72Q92.38 10.28 92.40 9.77Q92.43 9.27 92.47 8.69Q92.52 8.11 92.60 7.43Q92.67 6.75 92.77 5.95L92.77 5.95Q92.80 5.61 93.09 5.41Q93.38 5.20 93.82 5.20L93.82 5.20Q94.22 5.20 94.57 5.29Q94.92 5.37 95.17 5.51Q95.43 5.65 95.57 5.84Q95.72 6.02 95.72 6.23L95.72 6.23Q95.72 6.45 95.63 6.90Q95.54 7.35 95.44 7.93Q95.34 8.51 95.26 9.18Q95.17 9.86 95.17 10.51ZM105.73 2.71L105.73 2.71Q105.39 2.71 105.09 2.61Q104.79 2.51 104.57 2.33Q104.36 2.14 104.23 1.90Q104.10 1.65 104.10 1.36L104.10 1.36Q104.10 0.87 104.49 0.56Q104.88 0.26 105.54 0.26L105.54 0.26Q105.84 0.26 106.13 0.37Q106.41 0.48 106.62 0.67Q106.84 0.86 106.97 1.11Q107.10 1.36 107.10 1.63L107.10 1.63Q107.10 2.13 106.73 2.42Q106.36 2.71 105.73 2.71ZM104.12 6.28L104.12 6.28Q104.12 5.87 104.48 5.61Q104.84 5.34 105.42 5.34L105.42 5.34Q106.48 5.34 106.55 6.07L106.55 6.07Q106.59 6.57 106.65 7.21Q106.70 7.84 106.75 8.55Q106.80 9.26 106.85 10.01Q106.89 10.77 106.92 11.50Q106.96 12.23 106.98 12.91Q107.00 13.59 107.00 14.16L107.00 14.16Q107.00 14.74 106.59 15.04Q106.17 15.33 105.38 15.33L105.38 15.33Q105.01 15.33 104.81 15.16Q104.60 14.99 104.60 14.66L104.60 14.66Q104.60 13.04 104.53 11.63Q104.45 10.22 104.36 9.12Q104.27 8.02 104.20 7.28Q104.12 6.55 104.12 6.28ZM114.08 11.75L114.08 11.75Q113.68 11.75 113.31 11.81Q112.95 11.87 112.63 11.94Q112.31 12 112.07 12.06Q111.82 12.12 111.68 12.12L111.68 12.12Q111.55 12.12 111.42 12.01Q111.28 11.89 111.18 11.72Q111.07 11.54 111 11.33Q110.93 11.12 110.93 10.92L110.93 10.92Q110.93 10.75 111.18 10.43Q111.43 10.11 111.80 9.71Q112.17 9.32 112.61 8.86Q113.05 8.40 113.42 7.95Q113.79 7.49 114.04 7.06Q114.29 6.63 114.29 6.28L114.29 6.28Q114.29 5.88 114 5.69Q113.71 5.50 113.24 5.50L113.24 5.50Q112.59 5.50 111.96 5.65Q111.32 5.80 110.77 5.99Q110.21 6.18 109.78 6.33Q109.34 6.48 109.09 6.48L109.09 6.48Q108.93 6.48 108.78 6.39Q108.63 6.29 108.52 6.13Q108.40 5.98 108.33 5.77Q108.27 5.55 108.27 5.32L108.27 5.32Q108.27 4.91 108.40 4.60Q108.54 4.29 108.77 4.20L108.77 4.20Q109.22 4.03 109.83 3.88Q110.45 3.74 111.12 3.62Q111.79 3.50 112.45 3.44Q113.11 3.38 113.65 3.38L113.65 3.38Q115.10 3.38 115.86 3.96Q116.63 4.54 116.63 5.64L116.63 5.64Q116.63 6.13 116.50 6.56Q116.38 7.00 116.12 7.43Q115.85 7.86 115.45 8.33Q115.05 8.79 114.49 9.33L114.49 9.33Q114.27 9.55 114.27 9.69L114.27 9.69Q114.27 9.89 114.70 9.94L114.70 9.94Q115.84 10.00 116.71 10.34Q117.59 10.68 118.18 11.26Q118.78 11.85 119.09 12.65Q119.40 13.45 119.40 14.45L119.40 14.45Q119.40 15.68 118.95 16.75Q118.50 17.82 117.71 18.62Q116.92 19.41 115.85 19.86Q114.79 20.32 113.55 20.32L113.55 20.32Q112.46 20.32 111.52 19.99Q110.57 19.65 109.87 19.07Q109.17 18.49 108.77 17.71Q108.36 16.93 108.36 16.03L108.36 16.03Q108.36 15.61 108.46 15.18Q108.55 14.75 108.70 14.41Q108.86 14.07 109.04 13.86Q109.23 13.65 109.42 13.65L109.42 13.65Q109.71 13.65 109.99 13.72Q110.26 13.78 110.48 13.89Q110.70 14.00 110.83 14.14Q110.96 14.29 110.96 14.43L110.96 14.43Q110.96 14.54 110.92 14.67Q110.88 14.79 110.84 14.94Q110.80 15.08 110.76 15.25Q110.72 15.41 110.72 15.60L110.72 15.60Q110.72 16.13 110.96 16.60Q111.20 17.07 111.61 17.43Q112.02 17.78 112.57 17.98Q113.12 18.19 113.74 18.19L113.74 18.19Q114.49 18.19 115.11 17.94Q115.72 17.68 116.16 17.22Q116.60 16.76 116.84 16.12Q117.08 15.48 117.08 14.71L117.08 14.71Q117.08 14.07 116.85 13.54Q116.63 13.00 116.23 12.60Q115.83 12.21 115.28 11.98Q114.73 11.75 114.08 11.75Z" transform="translate(0, 52)"></path></svg>